<mxfile host="app.diagrams.net" modified="2021-05-22T12:03:16.694Z" agent="5.0 (Windows NT 10.0; Win64; x64) AppleWebKit/537.36 (KHTML, like Gecko) Chrome/90.0.4430.93 Safari/537.36 OPR/76.0.4017.123" etag="LMa88qOaq_CtlOBtpGTx" version="14.7.0" type="github">
  <diagram id="AsL2J251Isr8kJkKQHdW" name="Page-1">
    <mxGraphModel dx="742" dy="477" grid="1" gridSize="10" guides="1" tooltips="1" connect="1" arrows="1" fold="1" page="1" pageScale="1" pageWidth="827" pageHeight="1169" math="0" shadow="0">
      <root>
        <mxCell id="0" />
        <mxCell id="1" parent="0" />
        <mxCell id="w96s1OQSeW8Rjc-1KAH1-1" value="Actor" style="shape=umlActor;verticalLabelPosition=bottom;verticalAlign=top;html=1;outlineConnect=0;fillColor=#dae8fc;strokeColor=#6c8ebf;" parent="1" vertex="1">
          <mxGeometry x="50" y="179" width="30" height="60" as="geometry" />
        </mxCell>
        <mxCell id="w96s1OQSeW8Rjc-1KAH1-2" value="Actor" style="shape=umlActor;verticalLabelPosition=bottom;verticalAlign=top;html=1;outlineConnect=0;fillColor=#dae8fc;strokeColor=#6c8ebf;" parent="1" vertex="1">
          <mxGeometry x="680" y="179" width="30" height="60" as="geometry" />
        </mxCell>
        <mxCell id="w96s1OQSeW8Rjc-1KAH1-3" value="Actor" style="shape=umlActor;verticalLabelPosition=bottom;verticalAlign=top;html=1;outlineConnect=0;fillColor=#d5e8d4;strokeColor=#82b366;" parent="1" vertex="1">
          <mxGeometry x="384" y="180" width="30" height="60" as="geometry" />
        </mxCell>
        <mxCell id="w96s1OQSeW8Rjc-1KAH1-4" value="Realizar una búsqueda de un coche" style="ellipse;whiteSpace=wrap;html=1;" parent="1" vertex="1">
          <mxGeometry x="140" y="100" width="80" height="60" as="geometry" />
        </mxCell>
        <mxCell id="w96s1OQSeW8Rjc-1KAH1-5" value="Publicar nuevo anuncio de coche" style="ellipse;whiteSpace=wrap;html=1;" parent="1" vertex="1">
          <mxGeometry x="520" y="130" width="90" height="60" as="geometry" />
        </mxCell>
        <mxCell id="w96s1OQSeW8Rjc-1KAH1-8" value="Búsqueda según año de matriculación" style="ellipse;whiteSpace=wrap;html=1;" parent="1" vertex="1">
          <mxGeometry x="230" width="88" height="80" as="geometry" />
        </mxCell>
        <mxCell id="w96s1OQSeW8Rjc-1KAH1-9" value="Búsqueda por número de kilómetros" style="ellipse;whiteSpace=wrap;html=1;" parent="1" vertex="1">
          <mxGeometry x="250" y="90" width="80" height="80" as="geometry" />
        </mxCell>
        <mxCell id="w96s1OQSeW8Rjc-1KAH1-10" value="" style="endArrow=none;html=1;entryX=0;entryY=1;entryDx=0;entryDy=0;" parent="1" target="w96s1OQSeW8Rjc-1KAH1-4" edge="1">
          <mxGeometry width="50" height="50" relative="1" as="geometry">
            <mxPoint x="80" y="200" as="sourcePoint" />
            <mxPoint x="150" y="160" as="targetPoint" />
          </mxGeometry>
        </mxCell>
        <mxCell id="w96s1OQSeW8Rjc-1KAH1-11" value="" style="endArrow=classic;html=1;entryX=1;entryY=0;entryDx=0;entryDy=0;" parent="1" target="w96s1OQSeW8Rjc-1KAH1-4" edge="1">
          <mxGeometry width="50" height="50" relative="1" as="geometry">
            <mxPoint x="242" y="70" as="sourcePoint" />
            <mxPoint x="182" y="100" as="targetPoint" />
          </mxGeometry>
        </mxCell>
        <mxCell id="w96s1OQSeW8Rjc-1KAH1-12" value="" style="endArrow=classic;html=1;exitX=0.058;exitY=0.713;exitDx=0;exitDy=0;exitPerimeter=0;" parent="1" edge="1" source="w96s1OQSeW8Rjc-1KAH1-9">
          <mxGeometry width="50" height="50" relative="1" as="geometry">
            <mxPoint x="252" y="175.32000000000005" as="sourcePoint" />
            <mxPoint x="212" y="145" as="targetPoint" />
            <Array as="points">
              <mxPoint x="212" y="145" />
            </Array>
          </mxGeometry>
        </mxCell>
        <mxCell id="w96s1OQSeW8Rjc-1KAH1-13" value="Ordenar resultados&lt;br&gt;" style="ellipse;whiteSpace=wrap;html=1;" parent="1" vertex="1">
          <mxGeometry x="140" y="230" width="80" height="70" as="geometry" />
        </mxCell>
        <mxCell id="w96s1OQSeW8Rjc-1KAH1-15" value="" style="endArrow=none;html=1;exitX=1;exitY=0.3333333333333333;exitDx=0;exitDy=0;exitPerimeter=0;entryX=0;entryY=0;entryDx=0;entryDy=0;" parent="1" source="w96s1OQSeW8Rjc-1KAH1-1" target="w96s1OQSeW8Rjc-1KAH1-13" edge="1">
          <mxGeometry width="50" height="50" relative="1" as="geometry">
            <mxPoint x="360" y="220" as="sourcePoint" />
            <mxPoint x="410" y="170" as="targetPoint" />
          </mxGeometry>
        </mxCell>
        <mxCell id="w96s1OQSeW8Rjc-1KAH1-17" value="Seleccionar coche" style="ellipse;whiteSpace=wrap;html=1;" parent="1" vertex="1">
          <mxGeometry x="170" y="320" width="80" height="60" as="geometry" />
        </mxCell>
        <mxCell id="w96s1OQSeW8Rjc-1KAH1-18" value="Añadir coche a favoritos" style="ellipse;whiteSpace=wrap;html=1;" parent="1" vertex="1">
          <mxGeometry x="304" y="340" width="80" height="60" as="geometry" />
        </mxCell>
        <mxCell id="w96s1OQSeW8Rjc-1KAH1-20" value="" style="endArrow=none;html=1;exitX=0.067;exitY=0.139;exitDx=0;exitDy=0;exitPerimeter=0;" parent="1" source="w96s1OQSeW8Rjc-1KAH1-17" edge="1">
          <mxGeometry width="50" height="50" relative="1" as="geometry">
            <mxPoint x="30" y="250" as="sourcePoint" />
            <mxPoint x="80" y="200" as="targetPoint" />
          </mxGeometry>
        </mxCell>
        <mxCell id="w96s1OQSeW8Rjc-1KAH1-21" value="" style="endArrow=classic;html=1;" parent="1" edge="1">
          <mxGeometry width="50" height="50" relative="1" as="geometry">
            <mxPoint x="305" y="370" as="sourcePoint" />
            <mxPoint x="250" y="349.5" as="targetPoint" />
            <Array as="points">
              <mxPoint x="305" y="370" />
            </Array>
          </mxGeometry>
        </mxCell>
        <mxCell id="w96s1OQSeW8Rjc-1KAH1-22" value="Visualizar coche" style="ellipse;whiteSpace=wrap;html=1;" parent="1" vertex="1">
          <mxGeometry x="410" y="290" width="80" height="60" as="geometry" />
        </mxCell>
        <mxCell id="w96s1OQSeW8Rjc-1KAH1-23" value="Eliminar coche de favoritos" style="ellipse;whiteSpace=wrap;html=1;" parent="1" vertex="1">
          <mxGeometry x="410" y="360" width="80" height="60" as="geometry" />
        </mxCell>
        <mxCell id="w96s1OQSeW8Rjc-1KAH1-24" value="" style="endArrow=classic;html=1;entryX=1;entryY=0;entryDx=0;entryDy=0;" parent="1" target="w96s1OQSeW8Rjc-1KAH1-18" edge="1">
          <mxGeometry width="50" height="50" relative="1" as="geometry">
            <mxPoint x="410" y="310" as="sourcePoint" />
            <mxPoint x="370" y="260" as="targetPoint" />
          </mxGeometry>
        </mxCell>
        <mxCell id="w96s1OQSeW8Rjc-1KAH1-25" value="" style="endArrow=classic;html=1;exitX=0;exitY=0;exitDx=0;exitDy=0;entryX=0.992;entryY=0.628;entryDx=0;entryDy=0;entryPerimeter=0;" parent="1" source="w96s1OQSeW8Rjc-1KAH1-23" target="w96s1OQSeW8Rjc-1KAH1-18" edge="1">
          <mxGeometry width="50" height="50" relative="1" as="geometry">
            <mxPoint x="320" y="310" as="sourcePoint" />
            <mxPoint x="370" y="260" as="targetPoint" />
          </mxGeometry>
        </mxCell>
        <mxCell id="w96s1OQSeW8Rjc-1KAH1-26" value="" style="endArrow=none;html=1;entryX=0.5;entryY=0.5;entryDx=0;entryDy=0;entryPerimeter=0;" parent="1" target="w96s1OQSeW8Rjc-1KAH1-2" edge="1">
          <mxGeometry width="50" height="50" relative="1" as="geometry">
            <mxPoint x="600" y="175" as="sourcePoint" />
            <mxPoint x="680" y="210" as="targetPoint" />
          </mxGeometry>
        </mxCell>
        <mxCell id="w96s1OQSeW8Rjc-1KAH1-27" value="Recomendar precio-venta&amp;nbsp;" style="ellipse;whiteSpace=wrap;html=1;" parent="1" vertex="1">
          <mxGeometry x="480" y="220" width="80" height="60" as="geometry" />
        </mxCell>
        <mxCell id="w96s1OQSeW8Rjc-1KAH1-28" value="" style="endArrow=none;html=1;exitX=0.5;exitY=0.5;exitDx=0;exitDy=0;exitPerimeter=0;" parent="1" source="w96s1OQSeW8Rjc-1KAH1-3" edge="1">
          <mxGeometry width="50" height="50" relative="1" as="geometry">
            <mxPoint x="430" y="250" as="sourcePoint" />
            <mxPoint x="490" y="228" as="targetPoint" />
          </mxGeometry>
        </mxCell>
        <mxCell id="8t_JVIRldsv6qtaErGp4-1" value="Orden por año de matriculación" style="ellipse;whiteSpace=wrap;html=1;" vertex="1" parent="1">
          <mxGeometry x="270" y="170" width="88" height="80" as="geometry" />
        </mxCell>
        <mxCell id="8t_JVIRldsv6qtaErGp4-2" value="Orden por número de kilómetros" style="ellipse;whiteSpace=wrap;html=1;" vertex="1" parent="1">
          <mxGeometry x="260" y="260" width="80" height="80" as="geometry" />
        </mxCell>
        <mxCell id="8t_JVIRldsv6qtaErGp4-3" value="" style="endArrow=classic;html=1;" edge="1" parent="1">
          <mxGeometry width="50" height="50" relative="1" as="geometry">
            <mxPoint x="270" y="220" as="sourcePoint" />
            <mxPoint x="210" y="240" as="targetPoint" />
            <Array as="points">
              <mxPoint x="270" y="220.20999999999998" />
            </Array>
          </mxGeometry>
        </mxCell>
        <mxCell id="8t_JVIRldsv6qtaErGp4-4" value="" style="endArrow=classic;html=1;" edge="1" parent="1">
          <mxGeometry width="50" height="50" relative="1" as="geometry">
            <mxPoint x="260" y="305" as="sourcePoint" />
            <mxPoint x="210" y="284" as="targetPoint" />
          </mxGeometry>
        </mxCell>
        <mxCell id="8t_JVIRldsv6qtaErGp4-7" value="" style="ellipse;whiteSpace=wrap;html=1;aspect=fixed;fillColor=#030303;" vertex="1" parent="1">
          <mxGeometry x="90" y="585" width="30" height="30" as="geometry" />
        </mxCell>
        <mxCell id="8t_JVIRldsv6qtaErGp4-8" value="" style="endArrow=classic;html=1;exitX=1;exitY=0.5;exitDx=0;exitDy=0;" edge="1" parent="1" source="8t_JVIRldsv6qtaErGp4-7">
          <mxGeometry width="50" height="50" relative="1" as="geometry">
            <mxPoint x="360" y="720" as="sourcePoint" />
            <mxPoint x="300" y="600" as="targetPoint" />
          </mxGeometry>
        </mxCell>
        <mxCell id="8t_JVIRldsv6qtaErGp4-11" value="Solicitud aprobada" style="rounded=1;whiteSpace=wrap;html=1;fillColor=#FFFFFF;" vertex="1" parent="1">
          <mxGeometry x="304" y="580" width="80" height="40" as="geometry" />
        </mxCell>
        <mxCell id="8t_JVIRldsv6qtaErGp4-12" value="" style="endArrow=classic;html=1;exitX=1;exitY=0.5;exitDx=0;exitDy=0;entryX=0;entryY=0.5;entryDx=0;entryDy=0;" edge="1" parent="1" source="8t_JVIRldsv6qtaErGp4-11" target="8t_JVIRldsv6qtaErGp4-13">
          <mxGeometry width="50" height="50" relative="1" as="geometry">
            <mxPoint x="360" y="700" as="sourcePoint" />
            <mxPoint x="440" y="600" as="targetPoint" />
          </mxGeometry>
        </mxCell>
        <mxCell id="8t_JVIRldsv6qtaErGp4-13" value="Alumno prematriculado" style="rounded=1;whiteSpace=wrap;html=1;fillColor=#FFFFFF;" vertex="1" parent="1">
          <mxGeometry x="500" y="575" width="80" height="50" as="geometry" />
        </mxCell>
        <mxCell id="8t_JVIRldsv6qtaErGp4-18" value="Alumno matriculado" style="rounded=1;whiteSpace=wrap;html=1;fillColor=#FFFFFF;" vertex="1" parent="1">
          <mxGeometry x="700" y="570" width="80" height="50" as="geometry" />
        </mxCell>
        <mxCell id="8t_JVIRldsv6qtaErGp4-19" value="" style="endArrow=classic;html=1;exitX=1;exitY=0.5;exitDx=0;exitDy=0;" edge="1" parent="1" source="8t_JVIRldsv6qtaErGp4-13">
          <mxGeometry width="50" height="50" relative="1" as="geometry">
            <mxPoint x="640" y="595" as="sourcePoint" />
            <mxPoint x="700" y="600" as="targetPoint" />
          </mxGeometry>
        </mxCell>
        <mxCell id="8t_JVIRldsv6qtaErGp4-20" value="Aprobar todos los módulos" style="rounded=1;whiteSpace=wrap;html=1;fillColor=#FFFFFF;" vertex="1" parent="1">
          <mxGeometry x="670" y="720" width="100" height="40" as="geometry" />
        </mxCell>
        <mxCell id="8t_JVIRldsv6qtaErGp4-22" value="" style="endArrow=classic;html=1;exitX=0.5;exitY=0;exitDx=0;exitDy=0;" edge="1" parent="1" source="8t_JVIRldsv6qtaErGp4-20">
          <mxGeometry width="50" height="50" relative="1" as="geometry">
            <mxPoint x="430" y="670" as="sourcePoint" />
            <mxPoint x="560" y="680" as="targetPoint" />
            <Array as="points">
              <mxPoint x="720" y="680" />
            </Array>
          </mxGeometry>
        </mxCell>
        <mxCell id="8t_JVIRldsv6qtaErGp4-23" value="" style="endArrow=classic;html=1;entryX=0;entryY=0.25;entryDx=0;entryDy=0;" edge="1" parent="1" target="8t_JVIRldsv6qtaErGp4-20">
          <mxGeometry width="50" height="50" relative="1" as="geometry">
            <mxPoint x="560" y="680" as="sourcePoint" />
            <mxPoint x="480" y="620" as="targetPoint" />
            <Array as="points">
              <mxPoint x="560" y="730" />
            </Array>
          </mxGeometry>
        </mxCell>
        <mxCell id="8t_JVIRldsv6qtaErGp4-24" value="Repite modulo suspenso" style="text;html=1;strokeColor=none;fillColor=none;align=center;verticalAlign=middle;whiteSpace=wrap;rounded=0;" vertex="1" parent="1">
          <mxGeometry x="580" y="651" width="100" height="20" as="geometry" />
        </mxCell>
        <mxCell id="8t_JVIRldsv6qtaErGp4-25" value="" style="endArrow=classic;html=1;" edge="1" parent="1">
          <mxGeometry width="50" height="50" relative="1" as="geometry">
            <mxPoint x="670" y="741" as="sourcePoint" />
            <mxPoint x="500" y="741" as="targetPoint" />
          </mxGeometry>
        </mxCell>
        <mxCell id="8t_JVIRldsv6qtaErGp4-26" value="" style="endArrow=classic;html=1;exitX=0.5;exitY=1;exitDx=0;exitDy=0;" edge="1" parent="1" source="8t_JVIRldsv6qtaErGp4-18">
          <mxGeometry width="50" height="50" relative="1" as="geometry">
            <mxPoint x="430" y="650" as="sourcePoint" />
            <mxPoint x="740" y="720" as="targetPoint" />
            <Array as="points">
              <mxPoint x="740" y="720" />
            </Array>
          </mxGeometry>
        </mxCell>
        <mxCell id="8t_JVIRldsv6qtaErGp4-28" value="FCT" style="rounded=1;whiteSpace=wrap;html=1;fillColor=#FFFFFF;" vertex="1" parent="1">
          <mxGeometry x="440" y="725" width="60" height="35" as="geometry" />
        </mxCell>
        <mxCell id="8t_JVIRldsv6qtaErGp4-29" value="" style="endArrow=classic;html=1;exitX=0.5;exitY=0;exitDx=0;exitDy=0;" edge="1" parent="1" source="8t_JVIRldsv6qtaErGp4-28">
          <mxGeometry width="50" height="50" relative="1" as="geometry">
            <mxPoint x="430" y="760" as="sourcePoint" />
            <mxPoint x="320" y="680" as="targetPoint" />
            <Array as="points">
              <mxPoint x="470" y="680" />
            </Array>
          </mxGeometry>
        </mxCell>
        <mxCell id="8t_JVIRldsv6qtaErGp4-32" value="" style="endArrow=classic;html=1;" edge="1" parent="1">
          <mxGeometry width="50" height="50" relative="1" as="geometry">
            <mxPoint x="320" y="680" as="sourcePoint" />
            <mxPoint x="440" y="730" as="targetPoint" />
            <Array as="points">
              <mxPoint x="320" y="730" />
            </Array>
          </mxGeometry>
        </mxCell>
        <mxCell id="8t_JVIRldsv6qtaErGp4-33" value="Repite FCT suspensa" style="text;html=1;strokeColor=none;fillColor=none;align=center;verticalAlign=middle;whiteSpace=wrap;rounded=0;" vertex="1" parent="1">
          <mxGeometry x="304" y="651" width="100" height="20" as="geometry" />
        </mxCell>
        <mxCell id="8t_JVIRldsv6qtaErGp4-34" value="" style="endArrow=classic;html=1;entryX=1;entryY=0.5;entryDx=0;entryDy=0;" edge="1" parent="1" target="8t_JVIRldsv6qtaErGp4-35">
          <mxGeometry width="50" height="50" relative="1" as="geometry">
            <mxPoint x="440" y="740" as="sourcePoint" />
            <mxPoint x="300" y="740" as="targetPoint" />
          </mxGeometry>
        </mxCell>
        <mxCell id="8t_JVIRldsv6qtaErGp4-35" value="APTO/Título" style="rounded=1;whiteSpace=wrap;html=1;fillColor=#FFFFFF;" vertex="1" parent="1">
          <mxGeometry x="190" y="720" width="70" height="40" as="geometry" />
        </mxCell>
        <mxCell id="8t_JVIRldsv6qtaErGp4-36" value="" style="endArrow=classic;html=1;" edge="1" parent="1">
          <mxGeometry width="50" height="50" relative="1" as="geometry">
            <mxPoint x="190" y="740" as="sourcePoint" />
            <mxPoint x="120" y="740" as="targetPoint" />
          </mxGeometry>
        </mxCell>
        <mxCell id="8t_JVIRldsv6qtaErGp4-37" value="" style="ellipse;html=1;shape=endState;fillColor=#000000;strokeColor=#ff0000;" vertex="1" parent="1">
          <mxGeometry x="90" y="725" width="30" height="30" as="geometry" />
        </mxCell>
        <mxCell id="8t_JVIRldsv6qtaErGp4-38" value="Registrar una solicitud curso SEF" style="text;html=1;strokeColor=none;fillColor=none;align=center;verticalAlign=middle;whiteSpace=wrap;rounded=0;" vertex="1" parent="1">
          <mxGeometry x="160" y="570" width="110" height="20" as="geometry" />
        </mxCell>
        <mxCell id="8t_JVIRldsv6qtaErGp4-39" value="Entregar documentación" style="text;html=1;strokeColor=none;fillColor=none;align=center;verticalAlign=middle;whiteSpace=wrap;rounded=0;" vertex="1" parent="1">
          <mxGeometry x="614" y="565" width="66" height="20" as="geometry" />
        </mxCell>
        <mxCell id="8t_JVIRldsv6qtaErGp4-41" value="Inicio curso/Formación correspondiente" style="text;html=1;strokeColor=none;fillColor=none;align=center;verticalAlign=middle;whiteSpace=wrap;rounded=0;" vertex="1" parent="1">
          <mxGeometry x="690" y="640" width="130" height="20" as="geometry" />
        </mxCell>
      </root>
    </mxGraphModel>
  </diagram>
</mxfile>
